<?xml version="1.0" encoding="utf-8"?>
<!-- Generator: Adobe Illustrator 30.2.1, SVG Export Plug-In . SVG Version: 9.03 Build 0)  -->
<svg version="1.0" id="Final" xmlns="http://www.w3.org/2000/svg" xmlns:xlink="http://www.w3.org/1999/xlink" x="0px" y="0px"
	 viewBox="0 0 1024 1024" style="enable-background:new 0 0 1024 1024;" xml:space="preserve">
<style type="text/css">
	.st0{fill:#FFFFFF;}
</style>
<path d="M929.21,390.7l-19.45-19.97l-22.38,1.13c12.9-27.27,26.32-53.51,40.51-79.96c1.32-2.47,2.36-5.25,2.96-7.7l-22.8-22.74
	c-30.08,1.96-58.57,5.86-87.81,12.44l-10.43,24.51c-3.14,7.38,1.36-4.72-3.55-9.63l-12.66-12.64c-2.26-2.26-7.53-1.07-10.68-0.47
	l-47.55,9.03c-1.03-1.86-2.1-3.97-3.04-4.99l-13.62-14.6c-3.54,0.27-6.45,0.28-9.78,0.76l-104.86,15.08l-8.26-11.66
	c-1.02-1.44-5.15-1.94-6.92-1.68l-105.4,15.59l-44.55,7.1l2.25-8.41l-13.94-16.14c-35.62,6.94-69.53,14.36-104.38,23.77
	l-29.35,38.15c-3.02-13.17-10.47-22.88-18.71-32.68c-21.22-25.25-49.12-28.5-80.86-25.31c-22.13,2.22-43.21,7.06-63.85,14.77
	L80.65,405.28L46.02,498.5c-1.29,3.46-1.3,6.42,1.27,8.97l17.35,17.18c30.72,0.65,60.81-3.84,89.71-14.52
	c14.67-5.42,26.84-12.53,40.84-20.72l-3.8,11.18l20.28,21.54c1.94,2.06,5.68,2.53,8.57,2.06l63.7-10.39l7.71-14.73L312,521.08
	l63.5-14.45l3.13-7.35l22.22,25.51c23.26-3.59,45.52-7.84,68.09-12.79c8.37-22.17,16.58-42.77,26.26-64.06l38.07-83.7l11.61-1.22
	c-19.52,47.05-37.21,93.43-54.15,141.23l16.48,17.35l-27.61,7.62l-16.38,31.39l2.51-11.11l-19.94-21.41l-66.81,17.22l-15.43,24.73
	l8.63-30.17l-20.15-21.76c-16.67,4.3-32.93,8.71-49.66,13.98l-40.8,12.83l-9.62,53.04c-11.75,64.79-22.83,128.98-30.61,194.1
	c6.75,8.07,13.18,14.8,20.57,21.77c30.57-5.99,59.43-12.5,89.21-19.92c1.48-0.37,3.73-3.15,4.42-4.38l21.93-39.49l-2.27,30.67
	l19.48,20.22c3.48,3.62,6.64,4.29,11.47,2.83l73.98-22.35l31.51-65.9c2.23,15.06,4.84,30.02,14.2,42.63
	c8.17,11.01,17.3,21.02,27.7,29.84c14.04,11.92,31.08,16.95,49.56,15.88c27.18-1.57,52.17-11.78,73.73-28.46
	c36.98-28.6,86.83-92.73,84.18-142.33l-22.4-23.3l28.09-39.54c-6.99-16.88-18.41-31.59-32.73-43.24
	c-10.67-8.68-22.88-10.35-36.42-10.96l33.03-6.94l16.04-34.64l2.99,22.79l21.3,23.27c1.07,1.02,4.81,1.62,6.11,1.37l62.96-11.9
	l32.89-71.68c2.26,3.77,4.24,6.92,6.94,9.8l52.61-6.06l18.43-43.55C932.06,395.64,931.35,392.9,929.21,390.7z M190.34,381.81
	c1.71-7.07,4.81-13.23,8.69-18.75C196.66,370.11,193.93,375.73,190.34,381.81z M392.07,453.99l24.98-72.17
	c2.08-0.79,4.52-1.38,6.9-1.66L392.07,453.99z M582.59,519.66l53.96-9.95c0.72-0.13,2.44-2.4,2.89-1.91
	c5.31,5.73,6.12,8.82,12.68,10.72c-26.04,4.61-40.53,12.65-61.63,25.36l4.79-11.05L582.59,519.66z M588.62,709.31l1.89-11.44
	c3.79,2.93,5.16,4.21,9.36,8.56L588.62,709.31z M642.69,621.87c8.5-7.8,20.45-11.55,31.89-6.89L642.69,621.87z M676,367.78
	l-7.17-7.05l11.35-2.24L676,367.78z"/>
<g id="Final_00000124860499313250729260000002833797551593016728_">
	<g>
		<g>
			<path class="st0" d="M644.28,482.42c13.15-39.56,27.77-77.07,44.99-114.47c10.76-23.37,21.25-45.82,33.29-68.43l54.24-10.27
				l-0.49,17.07c-0.98,34.52-1.87,68.03,2.23,103.97c8.06-15.97,13.11-31.72,19.42-47.72l31.8-77.39l59.64-10.14
				c-22.82,41.37-43.17,81.99-62.81,124.28l-35.38,77.7l-50.75,10.57l-2.52-47.97l-2.25-64.79
				c-19.97,33.34-35.53,66.69-50.74,101.01L644.28,482.42z"/>
			<path class="st0" d="M585.06,406.96l-18.8,43.71l57.45-7.88l-13.57,34.96L509.22,491.5l17.13-45.5
				c18.98-50.43,39.2-99.91,61.77-148.39c38.51-7.78,75.67-13.27,114.07-17.33l-16.61,39.87c-21.9,2.96-42.37,6.07-63.82,10.48
				l-22.92,42.41l50.36-4.36L636.59,400L585.06,406.96z"/>
			<polygon class="st0" points="887.01,408.88 845.17,411.27 853.73,387.45 896.79,384.08 			"/>
		</g>
		<g>
			<path class="st0" d="M437.99,479.32l-45.5,8.87l63.3-152.58c-16.42,2.6-32.48,5.67-49.55,9.7l14.95-37.72
				c49.29-10.54,98.3-18.95,149.67-24.58l-16.79,42.73l-48.84,7.29c-12.2,21.26-22.44,42.37-32.14,64.89L437.99,479.32z"/>
			<g>
				<path class="st0" d="M319.82,433.69c-13.64,1.11-26.49,2.95-40.45,5.28l-20.79,41.54l-47.23,8.47
					c17.31-33,34.13-63.45,52.76-94.22c20.43-33.35,42.16-64.71,66.84-95.1l77.76-17.7l-29.95,85.63l-31.78,106.02l-45.88,11.37
					L319.82,433.69z M302.82,400.07l28.94-2.74l20.95-64.69c-3.45,0.3-6.99,0.86-10.09,1.63c-9.09,13.67-17.08,26.82-25.26,40.86
					L302.82,400.07z"/>
				<path d="M302.82,400.07l14.53-24.93c8.18-14.04,16.18-27.18,25.26-40.86c3.1-0.77,6.64-1.34,10.09-1.63l-20.95,64.69
					L302.82,400.07z"/>
			</g>
			<g>
				<path class="st0" d="M260.91,328.21c2.24,51.82-42.53,96.61-81.06,125.54c-31.66,22.43-76.01,35.49-115.66,36.64l63.47-160.7
					l16.66-37.86c27.95-6.87,61.04-14.05,88.81-3.41C250.02,294.91,260.13,310.15,260.91,328.21z M168.02,419.39
					c20.48-13.87,35.31-33.17,41.73-56.72c1.99-7.29,2.85-14.76,1.3-22.03c-3.46-16.21-22.23-16.17-35.02-12.92l-38.5,84.42
					c-3.63,7.95-6.31,15.59-9.36,23.86C143.46,434.14,155.51,427.86,168.02,419.39z"/>
				<path d="M211.05,340.64c-3.46-16.21-22.23-16.17-35.02-12.92l-38.5,84.42c-3.63,7.95-6.31,15.59-9.36,23.86
					c15.29-1.87,27.34-8.15,39.85-16.62c20.48-13.87,35.31-33.17,41.73-56.72C211.74,355.38,212.6,347.91,211.05,340.64z
					 M190.34,381.81c1.71-7.07,4.81-13.23,8.69-18.75C196.66,370.11,193.93,375.73,190.34,381.81z"/>
			</g>
		</g>
	</g>
	<g>
		<path class="st0" d="M273.85,555.36l59.97-17.05c-13.92,46.9-25.13,94.42-30.88,144.37c5.32-4.89,8.65-9.97,12.41-15.73
			l71.48-109.2l41.75-10.73c-5.45,30.32-9.08,59.76-11.15,90.11c-1.02,14.89-2.55,28.19-1.74,43.9l17.88-33.88l54.56-106.52
			l64.98-15.6c-21.63,34.84-41.35,69.23-61.01,104.9L429.88,748.7l-58.87,17.77l4.85-84.98c0.17-13.27,3.48-25.95,1.27-39.65
			l-70.79,117.54l-70.11,17.07C246.91,702.13,259.27,630.23,273.85,555.36z"/>
		<path class="st0" d="M598.74,682.06l16.29-41.04l92.48-16.45c-6.19,33.13-26.02,62.94-46.17,89.53
			c-23.01,27.53-54.82,52.05-91.75,54.14c-15.96,0.91-31.48-1.55-44.15-11.25c-12.18-9.33-18.88-23.9-20.43-39.2
			c-5.05-49.63,26.65-105.91,61.21-139.67c13.64-13.32,28.93-23.34,45.59-32.29c25.71-13.83,78.38-27.45,97.3,3.92l-29.33,44.54
			c-15.52-18.06-44.43-13.98-62.28-1.85c-22.24,13.89-38.79,34.03-50.63,57.42c-8.81,17.43-17.91,45.29-6.86,62.89
			c9.53,15.17,26.76,12.97,40.88,5.71c17.88-10.18,31.77-25.22,40.17-44.19C626.11,675.49,613.36,678.31,598.74,682.06z"/>
	</g>
</g>
</svg>
